<svg width="17" height="18" viewBox="0 0 17 18" fill="none" xmlns="http://www.w3.org/2000/svg">
<path d="M2.125 0C1.56141 0 1.02091 0.223883 0.622398 0.622398C0.223883 1.02091 0 1.56141 0 2.125V14.875C0 15.4386 0.223883 15.9791 0.622398 16.3776C1.02091 16.7761 1.56141 17 2.125 17H8.3385C7.97409 16.6207 7.66556 16.1913 7.4222 15.725H2.125C1.89957 15.725 1.68337 15.6354 1.52396 15.476C1.36455 15.3166 1.275 15.1004 1.275 14.875H7.06605C6.75223 13.9064 6.71216 12.87 6.95025 11.88C7.18835 10.8901 7.69535 9.98523 8.41529 9.26529C9.13523 8.54535 10.0401 8.03835 11.03 7.80025C12.02 7.56216 13.0564 7.60223 14.025 7.91605V2.125C14.025 1.56141 13.8011 1.02091 13.4026 0.622398C13.0041 0.223883 12.4636 0 11.9 0H2.125ZM3.4 2.55H10.2C10.4254 2.55 10.6416 2.63955 10.801 2.79896C10.9604 2.95837 11.05 3.17457 11.05 3.4V4.25C11.05 4.47543 10.9604 4.69163 10.801 4.85104C10.6416 5.01045 10.4254 5.1 10.2 5.1H3.4C3.17457 5.1 2.95837 5.01045 2.79896 4.85104C2.63955 4.69163 2.55 4.47543 2.55 4.25V3.4C2.55 3.17457 2.63955 2.95837 2.79896 2.79896C2.95837 2.63955 3.17457 2.55 3.4 2.55V2.55ZM17 13.175C17 11.9351 16.5075 10.746 15.6307 9.86928C14.754 8.99254 13.5649 8.5 12.325 8.5C11.0851 8.5 9.89601 8.99254 9.01928 9.86928C8.14254 10.746 7.65 11.9351 7.65 13.175C7.65 14.4149 8.14254 15.604 9.01928 16.4807C9.89601 17.3575 11.0851 17.85 12.325 17.85C13.5649 17.85 14.754 17.3575 15.6307 16.4807C16.5075 15.604 17 14.4149 17 13.175ZM12.75 13.6L12.7508 15.7276C12.7508 15.8403 12.7061 15.9484 12.6264 16.0281C12.5467 16.1078 12.4386 16.1526 12.3258 16.1526C12.2131 16.1526 12.105 16.1078 12.0253 16.0281C11.9456 15.9484 11.9008 15.8403 11.9008 15.7276V13.6H9.7716C9.65888 13.6 9.55078 13.5552 9.47108 13.4755C9.39138 13.3958 9.3466 13.2877 9.3466 13.175C9.3466 13.0623 9.39138 12.9542 9.47108 12.8745C9.55078 12.7948 9.65888 12.75 9.7716 12.75H11.9V10.625C11.9 10.5123 11.9448 10.4042 12.0245 10.3245C12.1042 10.2448 12.2123 10.2 12.325 10.2C12.4377 10.2 12.5458 10.2448 12.6255 10.3245C12.7052 10.4042 12.75 10.5123 12.75 10.625V12.75H14.8776C14.9903 12.75 15.0984 12.7948 15.1781 12.8745C15.2578 12.9542 15.3026 13.0623 15.3026 13.175C15.3026 13.2877 15.2578 13.3958 15.1781 13.4755C15.0984 13.5552 14.9903 13.6 14.8776 13.6H12.7508H12.75Z" fill="#0077B6"/>
</svg>
